<svg width="82" height="15" viewBox="0 0 82 15" fill="none" xmlns="http://www.w3.org/2000/svg">
  <path
    d="M5.12004 14.44C4.10671 14.44 3.16671 14.2733 2.30004 13.94C1.44671 13.5933 0.680044 13.0733 4.39659e-05 12.38L2.00004 10.36C2.42671 10.8 2.90004 11.14 3.42004 11.38C3.94004 11.62 4.50671 11.74 5.12004 11.74C5.65338 11.74 6.10004 11.68 6.46004 11.56C6.82004 11.4267 7.09338 11.24 7.28004 11C7.46671 10.76 7.56004 10.4733 7.56004 10.14V9.98C7.56004 9.44667 7.40004 9.06667 7.08004 8.84C6.76004 8.6 6.26004 8.48 5.58004 8.48H3.16004V5.8H5.46004C5.87338 5.8 6.21338 5.74667 6.48004 5.64C6.76004 5.52 6.96671 5.34667 7.10004 5.12C7.24671 4.89333 7.32004 4.60667 7.32004 4.26V4.16C7.32004 3.68 7.14671 3.32 6.80004 3.08C6.45338 2.82667 5.92671 2.7 5.22004 2.7C4.67338 2.7 4.12671 2.81333 3.58004 3.04C3.04671 3.25333 2.60004 3.56 2.24004 3.96L0.400044 2.04C0.986711 1.4 1.69338 0.9 2.52004 0.54C3.36004 0.18 4.26004 0 5.22004 0C6.87338 0 8.17338 0.353334 9.12004 1.06C10.0667 1.75333 10.54 2.7 10.54 3.9C10.54 4.84667 10.2534 5.56 9.68004 6.04C9.12004 6.50667 8.44004 6.78 7.64004 6.86V6.98C8.17338 7.00667 8.68004 7.14 9.16004 7.38C9.64004 7.60667 10.0267 7.94 10.32 8.38C10.6267 8.82 10.78 9.38 10.78 10.06C10.78 10.9267 10.5467 11.6933 10.08 12.36C9.62671 13.0133 8.97338 13.5267 8.12004 13.9C7.28004 14.26 6.28004 14.44 5.12004 14.44ZM22.368 14.2H20.728C20.368 14.2 20.028 14.1133 19.708 13.94C19.4013 13.7533 19.1547 13.4867 18.968 13.14C18.7813 12.78 18.688 12.3533 18.688 11.86V11.6L19.328 12.36H18.608C18.448 13.04 18.0947 13.56 17.548 13.92C17.0013 14.2667 16.328 14.44 15.528 14.44C14.4747 14.44 13.668 14.16 13.108 13.6C12.548 13.0267 12.268 12.2867 12.268 11.38C12.268 10.6333 12.448 10.02 12.808 9.54C13.1813 9.06 13.7013 8.7 14.368 8.46C15.048 8.22 15.848 8.1 16.768 8.1H18.428V7.44C18.428 6.93333 18.2947 6.53333 18.028 6.24C17.7613 5.93333 17.3147 5.78 16.688 5.78C16.1013 5.78 15.6347 5.90667 15.288 6.16C14.9413 6.41333 14.6547 6.7 14.428 7.02L12.668 5.46C13.0947 4.83333 13.6347 4.34667 14.288 4C14.9413 3.64 15.8147 3.46 16.908 3.46C18.388 3.46 19.5013 3.79333 20.248 4.46C21.008 5.11333 21.388 6.06 21.388 7.3V11.9H22.368V14.2ZM18.428 9.78H16.988C16.4147 9.78 15.9813 9.88 15.688 10.08C15.3947 10.28 15.248 10.5733 15.248 10.96V11.26C15.248 11.6333 15.368 11.9133 15.608 12.1C15.848 12.2867 16.188 12.38 16.628 12.38C16.9613 12.38 17.2613 12.3333 17.528 12.24C17.7947 12.1467 18.008 12 18.168 11.8C18.3413 11.6 18.428 11.34 18.428 11.02V9.78ZM24.3547 14.2V3.7H27.5547L29.2947 6.52L30.1947 8H30.2747L31.1747 6.52L32.9147 3.7H36.1147V14.2H33.2347V8.9V7.38H33.1747L32.3747 8.84L30.2347 12.32L28.0947 8.84L27.2947 7.38H27.2347V8.86V14.2H24.3547ZM43.2465 14.44C42.1798 14.44 41.2665 14.22 40.5065 13.78C39.7598 13.3267 39.1865 12.6867 38.7865 11.86C38.3998 11.0333 38.2065 10.06 38.2065 8.94C38.2065 7.83333 38.3931 6.87333 38.7665 6.06C39.1531 5.23333 39.7131 4.59333 40.4465 4.14C41.1798 3.68667 42.0731 3.46 43.1265 3.46C44.2865 3.46 45.2198 3.71333 45.9265 4.22C46.6465 4.71333 47.1731 5.36667 47.5065 6.18C47.8398 6.99333 48.0065 7.87333 48.0065 8.82V9.7H41.2665V9.86C41.2665 10.5533 41.4531 11.1067 41.8265 11.52C42.2131 11.92 42.7998 12.12 43.5865 12.12C44.2131 12.12 44.7131 11.9933 45.0865 11.74C45.4731 11.4867 45.8331 11.1933 46.1665 10.86L47.6465 12.7C47.1798 13.2333 46.5665 13.66 45.8065 13.98C45.0598 14.2867 44.2065 14.44 43.2465 14.44ZM43.1865 5.64C42.7865 5.64 42.4398 5.73333 42.1465 5.92C41.8665 6.09333 41.6465 6.34 41.4865 6.66C41.3398 6.98 41.2665 7.36 41.2665 7.8V7.96H44.9465V7.78C44.9465 7.35333 44.8798 6.98 44.7465 6.66C44.6265 6.34 44.4331 6.09333 44.1665 5.92C43.9131 5.73333 43.5865 5.64 43.1865 5.64ZM52.0593 14.2V6H49.0193V3.7H58.0593V6H55.0193V14.2H52.0593ZM59.843 14.2V3.7H62.803V7.72H64.323L65.703 5.16C65.983 4.64 66.2963 4.26667 66.643 4.04C67.003 3.81333 67.463 3.7 68.023 3.7H69.243V6H68.183L67.283 7.68C67.1097 8.01333 66.9297 8.26 66.743 8.42C66.5563 8.56667 66.343 8.67333 66.103 8.74V8.84C66.3297 8.89333 66.5363 8.98667 66.723 9.12C66.923 9.25333 67.103 9.46667 67.263 9.76L68.443 11.9H69.523V14.2H68.143C67.583 14.2 67.1297 14.0867 66.783 13.86C66.4363 13.62 66.1097 13.2333 65.803 12.7L64.323 10.02H62.803V14.2H59.843ZM71.6594 14.2V3.7H74.5594V7.92L74.2994 10.36H74.3594L75.5794 8.12L78.4994 3.7H81.1394V14.2H78.2394V9.98L78.4994 7.54H78.4394L77.2194 9.78L74.2994 14.2H71.6594Z"
    fill="currentColor" />
</svg>