<svg xmlns="http://www.w3.org/2000/svg">
  <symbol id="icon-box" viewBox="0 0 50 50">
    <path
      d="M 1 3 L 1 15 L 3 15 L 3 48 L 47 48 L 47 15 L 49 15 L 49 3 Z M 3 5 L 47 5 L 47 13 L 3 13 Z M 5 15 L 45 15 L 45 46 L 5 46 Z M 17.5 19 C 15.578125 19 14 20.578125 14 22.5 C 14 24.421875 15.578125 26 17.5 26 L 32.5 26 C 34.421875 26 36 24.421875 36 22.5 C 36 20.578125 34.421875 19 32.5 19 Z M 17.5 21 L 32.5 21 C 33.339844 21 34 21.660156 34 22.5 C 34 23.339844 33.339844 24 32.5 24 L 17.5 24 C 16.660156 24 16 23.339844 16 22.5 C 16 21.660156 16.660156 21 17.5 21 Z"
      fill="currentColor"
    />
  </symbol>

  <symbol id="icon-cross" viewBox="0 0 16 16">
    <path
      fill-rule="evenodd"
      clip-rule="evenodd"
      d="M4.11 2.697L2.698 4.11 6.586 8l-3.89 3.89 1.415 1.413L8 9.414l3.89 3.89 1.413-1.415L9.414 8l3.89-3.89-1.415-1.413L8 6.586l-3.89-3.89z"
      fill="currentColor"
    />
  </symbol>

  <symbol id="icon-download" viewBox="0 0 24 24">
    <g fill="currentColor">
      <rect x="4" y="18" width="16" height="2" rx="1" />
      <rect x="4" y="15" width="2" height="4" rx="1" />
      <rect x="18" y="15" width="2" height="4" rx="1" />
      <path
        d="M12 15a1 1 0 0 1-.58-.18l-4-3a1 1 0 0 1 1.16-1.64L12 12.76l3.42-2.56a1 1 0 0 1 1.2 1.6l-4 3A1 1 0 0 1 12 15z"
      />
      <path d="M12 13a1 1 0 0 1-1-1V4a1 1 0 0 1 2 0v8a1 1 0 0 1-1 1z" />
    </g>
  </symbol>

  <symbol id="icon-ds" viewBox="0 0 50 50">
    <path
      d="M 41.625 10.769531 C 37.644531 7.566406 31.347656 7.023438 31.078125 7.003906 C 30.660156 6.96875 30.261719 7.203125 30.089844 7.589844 C 30.074219 7.613281 29.9375 7.929688 29.785156 8.421875 C 32.417969 8.867188 35.652344 9.761719 38.578125 11.578125 C 39.046875 11.867188 39.191406 12.484375 38.902344 12.953125 C 38.710938 13.261719 38.386719 13.429688 38.050781 13.429688 C 37.871094 13.429688 37.6875 13.378906 37.523438 13.277344 C 32.492188 10.15625 26.210938 10 25 10 C 23.789063 10 17.503906 10.15625 12.476563 13.277344 C 12.007813 13.570313 11.390625 13.425781 11.101563 12.957031 C 10.808594 12.484375 10.953125 11.871094 11.421875 11.578125 C 14.347656 9.765625 17.582031 8.867188 20.214844 8.425781 C 20.0625 7.929688 19.925781 7.617188 19.914063 7.589844 C 19.738281 7.203125 19.34375 6.960938 18.921875 7.003906 C 18.652344 7.023438 12.355469 7.566406 8.320313 10.8125 C 6.214844 12.761719 2 24.152344 2 34 C 2 34.175781 2.046875 34.34375 2.132813 34.496094 C 5.039063 39.605469 12.972656 40.941406 14.78125 41 C 14.789063 41 14.800781 41 14.8125 41 C 15.132813 41 15.433594 40.847656 15.621094 40.589844 L 17.449219 38.074219 C 12.515625 36.800781 9.996094 34.636719 9.851563 34.507813 C 9.4375 34.144531 9.398438 33.511719 9.765625 33.097656 C 10.128906 32.683594 10.761719 32.644531 11.175781 33.007813 C 11.234375 33.0625 15.875 37 25 37 C 34.140625 37 38.78125 33.046875 38.828125 33.007813 C 39.242188 32.648438 39.871094 32.683594 40.238281 33.101563 C 40.601563 33.515625 40.5625 34.144531 40.148438 34.507813 C 40.003906 34.636719 37.484375 36.800781 32.550781 38.074219 L 34.378906 40.589844 C 34.566406 40.847656 34.867188 41 35.1875 41 C 35.199219 41 35.210938 41 35.21875 41 C 37.027344 40.941406 44.960938 39.605469 47.867188 34.496094 C 47.953125 34.34375 48 34.175781 48 34 C 48 24.152344 43.785156 12.761719 41.625 10.769531 Z M 18.5 30 C 16.566406 30 15 28.210938 15 26 C 15 23.789063 16.566406 22 18.5 22 C 20.433594 22 22 23.789063 22 26 C 22 28.210938 20.433594 30 18.5 30 Z M 31.5 30 C 29.566406 30 28 28.210938 28 26 C 28 23.789063 29.566406 22 31.5 22 C 33.433594 22 35 23.789063 35 26 C 35 28.210938 33.433594 30 31.5 30 Z"
      fill="currentColor"
    />
  </symbol>

  <symbol id="icon-edit" viewBox="0 0 128 128">
    <path
      fill="currentColor"
      d="M8 112V16c0-4.414 3.594-8 8-8h80c4.414 0 8 3.586 8 8v47.031l8-8V16c0-8.836-7.164-16-16-16H16C7.164 0 0 7.164 0 16v96c0 8.836 7.164 16 16 16h44v-8H16c-4.406 0-8-3.586-8-8zm80-88H24v8h64v-8zm0 16H24v8h64v-8zm0 16H24v8h64v-8zM24 80h32v-8H24v8zm101.656-8L120 66.344c-1.563-1.563-3.609-2.344-5.656-2.344s-4.094.781-5.656 2.344l-34.344 34.344C72.781 102.25 68 108.293 68 110.34L64 128l17.656-4c0 0 8.094-4.781 9.656-6.344l34.344-34.344c3.125-3.126 3.125-8.193 0-11.312zm-37.164 42.82c-.453.43-2.02 1.488-3.934 2.707l-10.363-10.363c1.063-1.457 2.246-2.922 2.977-3.648l25.859-25.859l11.313 11.313-25.852 25.85z"
    />
  </symbol>

  <symbol id="icon-github" viewBox="0 0 30 30">
    <path
      d="M15,3C8.373,3,3,8.373,3,15c0,5.623,3.872,10.328,9.092,11.63C12.036,26.468,12,26.28,12,26.047v-2.051 c-0.487,0-1.303,0-1.508,0c-0.821,0-1.551-0.353-1.905-1.009c-0.393-0.729-0.461-1.844-1.435-2.526 c-0.289-0.227-0.069-0.486,0.264-0.451c0.615,0.174,1.125,0.596,1.605,1.222c0.478,0.627,0.703,0.769,1.596,0.769 c0.433,0,1.081-0.025,1.691-0.121c0.328-0.833,0.895-1.6,1.588-1.962c-3.996-0.411-5.903-2.399-5.903-5.098 c0-1.162,0.495-2.286,1.336-3.233C9.053,10.647,8.706,8.73,9.435,8c1.798,0,2.885,1.166,3.146,1.481C13.477,9.174,14.461,9,15.495,9 c1.036,0,2.024,0.174,2.922,0.483C18.675,9.17,19.763,8,21.565,8c0.732,0.731,0.381,2.656,0.102,3.594 c0.836,0.945,1.328,2.066,1.328,3.226c0,2.697-1.904,4.684-5.894,5.097C18.199,20.49,19,22.1,19,23.313v2.734 c0,0.104-0.023,0.179-0.035,0.268C23.641,24.676,27,20.236,27,15C27,8.373,21.627,3,15,3z"
      fill="currentColor"
    />
  </symbol>

  <symbol id="icon-search" viewBox="0 0 30 30">
    <path
      d="M 13 3 C 7.4889971 3 3 7.4889971 3 13 C 3 18.511003 7.4889971 23 13 23 C 15.396508 23 17.597385 22.148986 19.322266 20.736328 L 25.292969 26.707031 A 1.0001 1.0001 0 1 0 26.707031 25.292969 L 20.736328 19.322266 C 22.148986 17.597385 23 15.396508 23 13 C 23 7.4889971 18.511003 3 13 3 z M 13 5 C 17.430123 5 21 8.5698774 21 13 C 21 17.430123 17.430123 21 13 21 C 8.5698774 21 5 17.430123 5 13 C 5 8.5698774 8.5698774 5 13 5 z"
      fill="currentColor"
    />
  </symbol>

  <symbol id="icon-tg" viewBox="0 0 50 50">
    <path
      d="M25,2c12.703,0,23,10.297,23,23S37.703,48,25,48S2,37.703,2,25S12.297,2,25,2z M32.934,34.375	c0.423-1.298,2.405-14.234,2.65-16.783c0.074-0.772-0.17-1.285-0.648-1.514c-0.578-0.278-1.434-0.139-2.427,0.219	c-1.362,0.491-18.774,7.884-19.78,8.312c-0.954,0.405-1.856,0.847-1.856,1.487c0,0.45,0.267,0.703,1.003,0.966	c0.766,0.273,2.695,0.858,3.834,1.172c1.097,0.303,2.346,0.04,3.046-0.395c0.742-0.461,9.305-6.191,9.92-6.693	c0.614-0.502,1.104,0.141,0.602,0.644c-0.502,0.502-6.38,6.207-7.155,6.997c-0.941,0.959-0.273,1.953,0.358,2.351	c0.721,0.454,5.906,3.932,6.687,4.49c0.781,0.558,1.573,0.811,2.298,0.811C32.191,36.439,32.573,35.484,32.934,34.375z"
      fill="currentColor"
    />
  </symbol>

  <symbol id="icon-select" viewBox="0 0 10 20" fill="none" xmlns="http://www.w3.org/2000/svg">
    <path d="M5 0L9.33013 7.5H0.669873L5 0Z" fill="currentColor" />
    <path d="M5 20L0.669872 12.5L9.33013 12.5L5 20Z" fill="currentColor" />
  </symbol>

  <symbol id="icon-trash" xmlns="http://www.w3.org/2000/svg" viewBox="0 0 48 48">
    <path
      d="M 20.5 4 A 1.50015 1.50015 0 0 0 19.066406 6 L 14.640625 6 C 12.803372 6 11.082924 6.9194511 10.064453 8.4492188 L 7.6972656 12 L 7.5 12 A 1.50015 1.50015 0 1 0 7.5 15 L 8.2636719 15 A 1.50015 1.50015 0 0 0 8.6523438 15.007812 L 11.125 38.085938 C 11.423352 40.868277 13.795836 43 16.59375 43 L 31.404297 43 C 34.202211 43 36.574695 40.868277 36.873047 38.085938 L 39.347656 15.007812 A 1.50015 1.50015 0 0 0 39.728516 15 L 40.5 15 A 1.50015 1.50015 0 1 0 40.5 12 L 40.302734 12 L 37.935547 8.4492188 C 36.916254 6.9202798 35.196001 6 33.359375 6 L 28.933594 6 A 1.50015 1.50015 0 0 0 27.5 4 L 20.5 4 z M 14.640625 9 L 33.359375 9 C 34.196749 9 34.974746 9.4162203 35.439453 10.113281 L 36.697266 12 L 11.302734 12 L 12.560547 10.113281 A 1.50015 1.50015 0 0 0 12.5625 10.111328 C 13.025982 9.4151428 13.801878 9 14.640625 9 z M 11.669922 15 L 36.330078 15 L 33.890625 37.765625 C 33.752977 39.049286 32.694383 40 31.404297 40 L 16.59375 40 C 15.303664 40 14.247023 39.049286 14.109375 37.765625 L 11.669922 15 z"
      fill="currentColor" />
  </symbol>

  <symbol id="icon-save" xmlns="http://www.w3.org/2000/svg" viewBox="0 0 438.533 438.533">
    <path fill="currentColor"
      d="M432.823 121.049c-3.806-9.132-8.377-16.367-13.709-21.695l-79.941-79.942C333.848 14.087 326.613 9.517 317.477 5.708 308.346 1.903 299.969 0 292.357 0H27.409C19.798 0 13.325 2.663 7.995 7.993 2.665 13.32 0 19.792 0 27.407v383.719c0 7.617 2.662 14.089 7.992 19.417 5.33 5.325 11.803 7.991 19.414 7.991h383.718c7.618 0 14.089-2.666 19.417-7.991 5.325-5.328 7.987-11.8 7.987-19.417V146.178c0-7.616-1.902-15.99-5.708-25.129zM182.725 45.677c0-2.474.905-4.611 2.714-6.423 1.807-1.804 3.949-2.708 6.423-2.708h54.819c2.468 0 4.609 0.902 6.417 2.708 1.813 1.812 2.717 3.949 2.717 6.423v91.362c0 2.478-.91 4.618-2.717 6.427-1.808 1.803-3.949 2.708-6.417 2.708h-54.819c-2.474 0-4.617-.902-6.423-2.708-1.809-1.812-2.714-3.949-2.714-6.427V45.677zm146.181 356.314H109.633V292.355h219.273v109.636zm73.094 0h-36.552h-.007V283.218c0-7.617-2.663-14.085-7.991-19.417-5.328-5.328-11.8-7.994-19.41-7.994H100.498c-7.614 0-14.087 2.666-19.417 7.994-5.327 5.328-7.992 11.8-7.992 19.417v118.773H36.544V36.542h36.544v118.771c0 7.615 2.662 14.084 7.992 19.414 5.33 5.327 11.803 7.993 19.417 7.993h164.456c7.61 0 14.089-2.666 19.41-7.993 5.325-5.327 7.994-11.799 7.994-19.414V36.542c2.854 0 6.563.95 11.136 2.853 4.572 1.902 7.806 3.805 9.709 5.708l80.232 80.23c1.902 1.903 3.806 5.19 5.708 9.851 1.909 4.665 2.857 8.33 2.857 10.994v255.813z" />
  </symbol>
</svg>